<svg width="25" height="25" viewBox="0 0 25 25" fill="none" xmlns="http://www.w3.org/2000/svg">
<path d="M10.8871 0C10.2238 0 9.67742 0.483939 9.67742 1.07143V1.78571H5.34904C4.6415 1.78571 3.98368 2.11529 3.61958 2.65276L2.99742 3.57143H1.6129C0.726881 3.57143 0 4.21524 0 5C0 5.78476 0.726881 6.42857 1.6129 6.42857H2.04606L3.48727 23.0211C3.58376 24.1342 4.63892 25 5.89954 25H19.1005C20.3611 25 21.4162 24.1342 21.5127 23.0211L22.9539 6.42857H23.3871C24.2731 6.42857 25 5.78476 25 5C25 4.21524 24.2731 3.57143 23.3871 3.57143H22.0026L21.3804 2.65276C21.0163 2.11529 20.3585 1.78571 19.651 1.78571H15.3226V1.07143C15.3226 0.483939 14.7762 0 14.1129 0H10.8871ZM10.8871 0.714286H14.1129C14.3407 0.714286 14.5161 0.869632 14.5161 1.07143V1.78571H10.4839V1.07143C10.4839 0.869632 10.6593 0.714286 10.8871 0.714286ZM5.34904 2.5H10.0129C10.0565 2.50637 10.1009 2.50637 10.1444 2.5H14.8516C14.8952 2.50637 14.9396 2.50637 14.9831 2.5H19.651C20.0765 2.5 20.4692 2.69713 20.6882 3.02037L21.304 3.92857H19.9597C19.933 3.92824 19.9064 3.93261 19.8816 3.94143C19.8569 3.95026 19.8343 3.96336 19.8153 3.97997C19.7962 3.99659 19.7811 4.01639 19.7708 4.03822C19.7605 4.06005 19.7552 4.08348 19.7552 4.10714C19.7552 4.13081 19.7605 4.15424 19.7708 4.17607C19.7811 4.1979 19.7962 4.2177 19.8153 4.23431C19.8343 4.25093 19.8569 4.26403 19.8816 4.27285C19.9064 4.28168 19.933 4.28605 19.9597 4.28571H21.9758H23.3871C23.8374 4.28571 24.1935 4.60119 24.1935 5C24.1935 5.39881 23.8374 5.71429 23.3871 5.71429H1.6129C1.16263 5.71429 0.806452 5.39881 0.806452 5C0.806452 4.60119 1.16263 4.28571 1.6129 4.28571H3.22581H17.1371C17.1638 4.28605 17.1903 4.28168 17.2151 4.27285C17.2399 4.26403 17.2625 4.25093 17.2815 4.23431C17.3005 4.2177 17.3156 4.1979 17.326 4.17607C17.3363 4.15424 17.3416 4.13081 17.3416 4.10714C17.3416 4.08348 17.3363 4.06005 17.326 4.03822C17.3156 4.01639 17.3005 3.99659 17.2815 3.97997C17.2625 3.96336 17.2399 3.95026 17.2151 3.94143C17.1903 3.93261 17.1638 3.92824 17.1371 3.92857H3.69597L4.31184 3.02037C4.53081 2.69713 4.92352 2.5 5.34904 2.5ZM18.3468 3.92857C18.3201 3.92824 18.2935 3.93261 18.2687 3.94143C18.2439 3.95026 18.2214 3.96336 18.2024 3.97997C18.1833 3.99659 18.1682 4.01639 18.1579 4.03822C18.1476 4.06005 18.1423 4.08348 18.1423 4.10714C18.1423 4.13081 18.1476 4.15424 18.1579 4.17607C18.1682 4.1979 18.1833 4.2177 18.2024 4.23431C18.2214 4.25093 18.2439 4.26403 18.2687 4.27285C18.2935 4.28168 18.3201 4.28605 18.3468 4.28571H19.1532C19.1799 4.28605 19.2065 4.28168 19.2313 4.27285C19.2561 4.26403 19.2786 4.25093 19.2976 4.23431C19.3167 4.2177 19.3318 4.1979 19.3421 4.17607C19.3524 4.15424 19.3577 4.13081 19.3577 4.10714C19.3577 4.08348 19.3524 4.06005 19.3421 4.03822C19.3318 4.01639 19.3167 3.99659 19.2976 3.97997C19.2786 3.96336 19.2561 3.95026 19.2313 3.94143C19.2065 3.93261 19.1799 3.92824 19.1532 3.92857H18.3468ZM2.85408 6.42857H22.1459L20.7086 22.9667C20.6438 23.7142 19.9471 24.2857 19.1005 24.2857H5.89954C5.0529 24.2857 4.35616 23.7142 4.29136 22.9667L2.85408 6.42857ZM7.66129 7.85714C6.99553 7.85714 6.45161 8.33889 6.45161 8.92857V21.4286C6.45161 22.0182 6.99553 22.5 7.66129 22.5C8.32705 22.5 8.87097 22.0182 8.87097 21.4286V8.92857C8.87097 8.33889 8.32705 7.85714 7.66129 7.85714ZM12.5 7.85714C11.8342 7.85714 11.2903 8.33889 11.2903 8.92857V21.4286C11.2903 22.0182 11.8342 22.5 12.5 22.5C13.1658 22.5 13.7097 22.0182 13.7097 21.4286V20.1786C13.7101 20.1549 13.7051 20.1314 13.6952 20.1095C13.6852 20.0875 13.6704 20.0675 13.6516 20.0507C13.6329 20.0338 13.6105 20.0204 13.5859 20.0113C13.5612 20.0022 13.5348 19.9975 13.5081 19.9975C13.4813 19.9975 13.4549 20.0022 13.4302 20.0113C13.4056 20.0204 13.3832 20.0338 13.3645 20.0507C13.3457 20.0675 13.3309 20.0875 13.321 20.1095C13.311 20.1314 13.3061 20.1549 13.3065 20.1786V21.4286C13.3065 21.8253 12.9479 22.1429 12.5 22.1429C12.0521 22.1429 11.6935 21.8253 11.6935 21.4286V8.92857C11.6935 8.53182 12.0521 8.21429 12.5 8.21429C12.9479 8.21429 13.3065 8.53182 13.3065 8.92857V18.0357C13.3061 18.0594 13.311 18.0829 13.321 18.1048C13.3309 18.1268 13.3457 18.1468 13.3645 18.1636C13.3832 18.1805 13.4056 18.1939 13.4302 18.203C13.4549 18.2121 13.4813 18.2168 13.5081 18.2168C13.5348 18.2168 13.5612 18.2121 13.5859 18.203C13.6105 18.1939 13.6329 18.1805 13.6516 18.1636C13.6704 18.1468 13.6852 18.1268 13.6952 18.1048C13.7051 18.0829 13.7101 18.0594 13.7097 18.0357V8.92857C13.7097 8.33889 13.1658 7.85714 12.5 7.85714ZM17.3387 7.85714C16.6729 7.85714 16.129 8.33889 16.129 8.92857V9.46429C16.1287 9.48795 16.1336 9.51144 16.1436 9.5334C16.1535 9.55536 16.1683 9.57535 16.1871 9.5922C16.2058 9.60905 16.2282 9.62243 16.2528 9.63156C16.2775 9.6407 16.3039 9.6454 16.3306 9.6454C16.3574 9.6454 16.3838 9.6407 16.4085 9.63156C16.4331 9.62243 16.4555 9.60905 16.4742 9.5922C16.493 9.57535 16.5078 9.55536 16.5177 9.5334C16.5277 9.51144 16.5326 9.48795 16.5323 9.46429V8.92857C16.5323 8.53182 16.8908 8.21429 17.3387 8.21429C17.7867 8.21429 18.1452 8.53182 18.1452 8.92857V21.4286C18.1452 21.8253 17.7867 22.1429 17.3387 22.1429C16.8908 22.1429 16.5323 21.8253 16.5323 21.4286V12.3214C16.5326 12.2978 16.5277 12.2743 16.5177 12.2523C16.5078 12.2304 16.493 12.2104 16.4742 12.1935C16.4555 12.1767 16.4331 12.1633 16.4085 12.1542C16.3838 12.145 16.3574 12.1403 16.3306 12.1403C16.3039 12.1403 16.2775 12.145 16.2528 12.1542C16.2282 12.1633 16.2058 12.1767 16.1871 12.1935C16.1683 12.2104 16.1535 12.2304 16.1436 12.2523C16.1336 12.2743 16.1287 12.2978 16.129 12.3214V21.4286C16.129 22.0182 16.6729 22.5 17.3387 22.5C18.0045 22.5 18.5484 22.0182 18.5484 21.4286V8.92857C18.5484 8.33889 18.0045 7.85714 17.3387 7.85714ZM7.66129 8.21429C8.10924 8.21429 8.46774 8.53182 8.46774 8.92857V21.4286C8.46774 21.8253 8.10924 22.1429 7.66129 22.1429C7.21334 22.1429 6.85484 21.8253 6.85484 21.4286V8.92857C6.85484 8.53182 7.21334 8.21429 7.66129 8.21429ZM16.3275 10.3544C16.301 10.3547 16.2749 10.3597 16.2506 10.369C16.2263 10.3783 16.2043 10.3918 16.1859 10.4086C16.1674 10.4255 16.1529 10.4454 16.1432 10.4672C16.1334 10.489 16.1286 10.5123 16.129 10.5357V11.25C16.1287 11.2737 16.1336 11.2972 16.1436 11.3191C16.1535 11.3411 16.1683 11.3611 16.1871 11.3779C16.2058 11.3948 16.2282 11.4081 16.2528 11.4173C16.2775 11.4264 16.3039 11.4311 16.3306 11.4311C16.3574 11.4311 16.3838 11.4264 16.4085 11.4173C16.4331 11.4081 16.4555 11.3948 16.4742 11.3779C16.493 11.3611 16.5078 11.3411 16.5177 11.3191C16.5277 11.2972 16.5326 11.2737 16.5323 11.25V10.5357C16.5327 10.5118 16.5277 10.488 16.5175 10.4659C16.5074 10.4437 16.4923 10.4236 16.4732 10.4066C16.4541 10.3897 16.4314 10.3764 16.4064 10.3674C16.3813 10.3584 16.3545 10.354 16.3275 10.3544Z" fill="black"/>
</svg>
