<svg width="25" height="25" viewBox="0 0 25 25" fill="none" xmlns="http://www.w3.org/2000/svg">
<path d="M22.3574 0C21.6802 0 21.0051 0.265365 20.4893 0.781234L20.0477 1.2228L23.784 4.95914C23.7819 4.96126 24.2256 4.51757 24.2256 4.51757C25.2595 3.48371 25.2573 1.81297 24.2256 0.781234C23.7076 0.265365 23.0346 0 22.3574 0ZM19.2155 2.19085C19.0924 2.20783 18.9777 2.2694 18.8928 2.36068L1.26412 20.0064C1.19407 20.0701 1.14099 20.1529 1.11127 20.2441L0.0243396 24.3201C-0.0244877 24.507 0.0307085 24.7044 0.166575 24.8403C0.302442 24.9761 0.499873 25.0313 0.68669 24.9825L4.76269 23.8956C4.85398 23.8658 4.93677 23.8128 5.00046 23.7427L22.6462 6.114C22.8627 5.90383 22.8648 5.5578 22.6546 5.34126C22.4445 5.12472 22.0984 5.1226 21.8819 5.33277L4.33811 22.8766L2.13027 20.6687L19.6741 3.12493C19.8375 2.96784 19.8864 2.7237 19.7951 2.51566C19.7038 2.30761 19.4936 2.17811 19.2665 2.19085C19.2495 2.19085 19.2325 2.19085 19.2155 2.19085Z" fill="black"/>
</svg>
