<svg width="30" height="30" viewBox="0 0 30 30" fill="none" xmlns="http://www.w3.org/2000/svg">
<path d="M15 0C14.8641 0 14.7287 0.0450367 14.613 0.136442L0.238291 11.8567C-0.0304539 12.0787 -0.080403 12.4888 0.132093 12.7761C0.34459 13.0568 0.737208 13.109 1.0122 12.887L1.87523 12.1831V29.3471C1.87523 29.7062 2.15647 30 2.50021 30H11.2501V18.2479H18.7499V30H27.4998C27.8435 30 28.1248 29.7062 28.1248 29.3471V12.1831L28.9878 12.887C29.1065 12.9784 29.2373 13.0247 29.3748 13.0247C29.5622 13.0247 29.7429 12.9393 29.8679 12.7761C30.0804 12.4888 30.0305 12.0787 29.7617 11.8567L15.387 0.136442C15.2713 0.0450367 15.1359 0 15 0ZM21.2499 2.57843V3.26447L24.9998 6.31982V2.57843H21.2499Z" fill="#101010"/>
</svg>
