<svg width="20" height="20" viewBox="0 0 20 20" fill="none" xmlns="http://www.w3.org/2000/svg">
<g clip-path="url(#clip0_53_30)">
<path d="M14.75 0.00277778C13.1406 0.0480903 11.1594 0.30434 10.0375 1.42778L9.7625 1.69028C7.94063 3.52465 7.95469 6.41059 9.7875 8.25278L11.7875 10.2528C12.6766 11.145 13.8438 11.6403 15.075 11.6403C16.2922 11.6403 17.4469 11.145 18.325 10.2653L18.5875 10.0028C19.9828 8.60903 19.9953 5.7309 20 4.50278C20.0016 4.28715 19.9531 4.1184 19.8375 4.00278C19.7437 3.90903 19.6094 3.86528 19.475 3.86528C19.2609 3.86528 19.0953 3.99028 19.0125 4.06528L16.4125 6.67778C16.3578 6.68715 16.2313 6.70278 15.9875 6.70278C15.1125 6.70278 13.8906 6.53247 13.5875 6.40278C13.3859 5.96215 13.2297 4.03247 13.3625 3.62778C13.7688 3.22153 15.9844 0.993403 16 0.977778C16.0703 0.89809 16.3 0.621528 16.1625 0.315278C16.1094 0.19809 15.9656 0.00434026 15.5875 0.00277778H15.4125C15.2016 0.00277778 14.9797 -0.00347222 14.75 0.00277778ZM8.55 7.99028L0.925 14.9278C0.117188 15.7372 -0.598437 17.5903 0.925 19.1153C1.62656 19.8168 2.36094 20.0028 2.95 20.0028C3.10156 20.0028 3.23438 19.9856 3.3625 19.9653C4.125 19.8512 4.76094 19.4559 5.1125 19.1028L12.0375 11.4778L11.4 10.9903L9.0375 8.62778L8.55 7.99028Z" fill="black"/>
</g>
<defs>
<clipPath id="clip0_53_30">
<rect width="20" height="20" fill="white"/>
</clipPath>
</defs>
</svg>
